<?xml version="1.0" encoding="utf-8"?>
<svg
	version="1.1"
	color="darkcyan"
	height="100px" width="100px"
	xmlns="http://www.w3.org/2000/svg"
	viewBox="0 0 1000 1000"
>
	<path
		fill="currentColor"
		d="M410.6,587c0-24.7-8.8-46.2-26.2-64.5c-17.4-18.3-38.3-27.5-62.4-27.5l-209.6,0c-24.1,0-44.9,9.2-62.4,27.5c-17.4,
18.3-26.2,39.8-26.2,64.5v216c0,24.7,8.8,46,26.2,63.9c17.4,17.9,38.3,26.8,62.4,26.8H322c24.1,0,44.9-9,
62.4-26.8c17.4-17.9,26.2-39.2,26.2-63.9L410.6,587L410.6,587L410.6,587z M878.8,102c0-24.7-8.8-46.2-26.2-64.5C835.2,
19.2,814.3,10,790.2,10H580.6c-24.1,0-44.9,9.2-62.4,27.5c-17.4,18.3-26.2,39.8-26.2,64.5v216c0,24.7,8.8,46,26.2,
63.9c17.4,17.9,38.3,26.8,62.4,26.8h209.7c24.1,0,44.9-9,62.4-26.8c17.4-17.9,26.2-39.2,26.2-63.9L878.8,102L878.8,
102L878.8,102z M410.6,102c0-24.7-8.8-46.2-26.2-64.5C366.9,19.2,346,10,321.9,10H112.3c-24.1,0-44.9,9.2-62.4,
27.5C32.4,55.8,23.6,77.3,23.6,102v216c0,24.7,8.8,46,26.2,63.9c17.4,17.9,38.3,26.8,62.4,26.8H322c24.1,0,
44.9-9,62.4-26.8c17.4-17.9,26.2-39.2,26.2-63.9L410.6,102L410.6,102L410.6,102z"/>
	<path
		fill="currentColor"
		d="M943.3,589.8c9.2,0,17,3.2,23.4,9.6c6.4,6.4,9.6,14.2,9.6,23.4v25.2c0,9.2-3.2,17-9.6,23.4c-6.4,6.4-14.2,9.6-23.4,
9.6H577.1c-9.2,0-17-3.3-23.4-9.6c-6.5-6.4-9.6-14.2-9.6-23.4v-25.2c0-9.2,3.2-17,9.6-23.4c6.4-6.4,14.2-9.6,
23.4-9.6H943.3L943.3,589.8L943.3,589.8z M943.3,744.3c9.2,0,17,3.2,23.4,9.6c6.4,6.4,9.6,14.2,9.6,23.4v25.2c0,
9.2-3.2,17-9.6,23.4c-6.4,6.4-14.2,9.6-23.4,9.6H577.1c-9.2,0-17-3.2-23.4-9.6c-6.5-6.4-9.6-14.2-9.6-23.4v-25.2c0-9.2,
3.2-17,9.6-23.4c6.4-6.4,14.2-9.6,23.4-9.6H943.3L943.3,744.3L943.3,744.3z M943.3,898.7c9.2,0,17,3.2,23.4,9.6c6.4,6.4,
9.6,14.2,9.6,23.5v25.1c0,9.3-3.2,17.1-9.6,23.5c-6.4,6.4-14.2,9.6-23.4,9.6H577.1c-9.2,
0-17-3.1-23.4-9.6c-6.5-6.4-9.6-14.2-9.6-23.5v-25.1c0-9.2,3.2-17,9.6-23.5c6.4-6.4,14.2-9.6,
23.4-9.6H943.3L943.3,898.7L943.3,898.7z"
	/>
</svg>
