<?xml version="1.0" encoding="utf-8" ?>
<svg
	version="1.1"
	color="darkcyan"
	height="100px" width="100px"
	xml:space="preserve"
	xmlns="http://www.w3.org/2000/svg"
	viewBox="0 0 1000 1000"
>
<g fill="currentColor">
	<path
		d="M500,990C229.4,990,10,770.6,10,500C10,229.4,229.4,10,500,10c270.6,0,490,219.4,490,490C990,770.6,770.6,990,500,990z M500,132.5C297,132.5,132.5,297,132.5,500c0,203,164.5,367.5,367.5,367.5c203,0,367.5-164.5,367.5-367.5C867.5,297,703,132.5,500,132.5z M561.3,745H438.8V561.3H255V438.8h183.8V255h122.5v183.8H745v122.5H561.3V745z"/>
</g>
</svg>