<?xml version="1.0" encoding="utf-8" ?>
<svg
	version="1.1"
	color="darkcyan"
	height="100px" width="100px"
	xml:space="preserve"
	xmlns="http://www.w3.org/2000/svg"
	viewBox="0 0 1000 1000"
>
	<g
		fill="currentColor"
		transform="translate(0.000000,511.000000) scale(0.100000,-0.100000)"><path d="M923.6,4502.9c-269.2-39.1-565.9-241.5-692.4-473.9C118.4,3819.7,100,3693.1,100,3108.8v-536h4900h4900v536c0,584.3-18.4,710.9-131.1,920.2c-80.5,144.9-282.9,331.3-437.1,398c-66.7,29.9-186.3,64.4-264.6,78.2C8890.1,4532.8,1119.1,4532.8,923.6,4502.9z M1751.7,4008.3c312.9-128.8,409.5-549.8,181.7-796c-184-197.8-515.3-209.3-715.4-23c-200.1,186.3-200.1,508.4-2.3,706.3C1358.4,4038.2,1572.3,4084.2,1751.7,4008.3z M3189.5,4019.8c110.4-29.9,234.7-140.3,296.8-257.6c64.4-131.1,52.9-365.8-27.6-485.4c-124.2-181.7-375-266.9-586.6-197.8c-342.8,112.7-444,559-184,816.7C2823.8,4031.3,2996.3,4075,3189.5,4019.8z"/>
		<path
			d="M100-677.8c0-2953.8-2.3-2866.4,117.3-3103.3c126.5-248.5,421-455.5,710.8-501.5c82.8-11.5,577.4-23,1122.6-23h970.8v3186.2v3186.2H1560.8H100V-677.8z"/>
		<path
			d="M4033.8,605.9V-854.9h2933.1H9900V605.9v1460.8H6966.9H4033.8V605.9z"
		/>
		<path
			d="M4033.8-3086.4v-1219.3h2445.4c1580.4,0,2496,9.2,2590.3,25.3c391.1,62.1,694.7,340.5,795.9,722.4c27.6,110.4,34.5,289.8,34.5,913.3v777.5H6966.9H4033.8V-3086.4z"
		/>
	</g>
</svg>