<?xml version="1.0" encoding="utf-8" ?>
<svg
	version="1.1"
	color="darkcyan"
	height="100px" width="100px"
	xml:space="preserve"
	xmlns="http://www.w3.org/2000/svg"
	viewBox="0 0 1000 1000"
>
<g fill="currentColor" transform="translate(0.000000,511.000000) scale(0.100000,-0.100000)">
	<path
		d="M2984.8,5005.1c-100-38-196-124-242-220c-38-78-42-122-42-408v-322l-160-64c-186-74-468-238-638-368c-66-50-124-92-132-92c-8,0-118,62-246,136c-128,76-264,148-302,160c-138,48-302,18-412-78c-62-56-578-918.1-672.1-1126.1c-50-112-48-222,10-346c56-120,110-162,420-336l214-120l-16-140c-20-178-20-618,0-800.1l16-140l-264-150c-276-158-356-232-396-358c-54-184-40-222,372-932.1c284-486,346-556,520-582.1c136-20,228,12,502,172c132,76,246,140,252,140c4,0,80-50,166-112c210-150,394-256,596-342l168-70l6-346l6-346l60-88c40-56,98-106,168-142l110-54h620c372,0,652.1,8,698.1,22c96,26,204,122,258,226c36,70,44,132,54,408l12,324l196,88c212,96,438.1,230,594,354c54,42,104,78,112,78c6,0,132-68,280-152c290-166,376-190,524.1-148c150,40,216,124,530,666c160,280,302,532,314,562c52,140,2,350-108,452c-30,28-164,114-298,192l-244,142l10,108c6,60,10,252,10,428s-4,368-10,428l-10,108l244,144c136,78,270,164,298,192c110,100,160,310,106,452c-40,106-584,1036.1-646.1,1104.1c-120,130-310,176-466,112c-40-18-174-90-296-160c-122-72-228-130-236-130c-6,0-76,48-154,106c-172,132-386,254-594,344l-156,68l-12,326c-10,276-18,338-54,408c-54,104-162,200-258,226C4258.9,5039.1,3070.8,5035.1,2984.8,5005.1z M4054.9,3080.9c582-114,1110.1-554,1332.1-1114.1c108-266,124-364,122-696.1c-2-276-8-330-54-486C5247,102.7,4723-383.3,4042.9-519.3c-206-42-644.1-32-832.1,20c-188,50-512,218-672.1,346c-490,390-756.1,1028.1-680.1,1636.1c60,498,302,934.1,688.1,1238.1C2972.8,3058.9,3510.9,3186.9,4054.9,3080.9z"
	/>
	<path
		d="M3530.9,2458.9c-588-90-1030.1-596-1030.1-1178.1c0-504,350-976.1,840.1-1132.1c172-56,480-60,650-10c334,98,608,326,748.1,618c94,196,122,322,122,538.1c0,502-320,942.1-802.1,1104.1C3910.9,2448.9,3654.9,2476.9,3530.9,2458.9z"
	/>
	<path
		d="M7407.2,1540.8l-124-80l-2-180v-180l104-60c150-88,318-266,402-426c170-322,176-684,16-1000.1c-130-254-628-1096.1-704-1186.1c-232-278-664-426-1024.1-352c-86,18-222,64-300,104l-146,72l-148-88l-150-88l-14-178c-6-98-32-232-56-298c-122-350-436-622-810.1-700.1c-86-18-254-30-434-30h-294l130-224c146-254,230-342,358-374c130-32,216-6,480,148c204,118,236,130,268,106c268-196,610-392,746.1-426l54-14l6-316c6-316,6-318,66-402c34-46,100-106,148-132c86-46,100-46,670.1-46c642,0,678.1,8,796.1,132c84,90,96,150,96,460c0,258,4,290,36,302c124,42,502,246,642,346l168,122l228-130c128-72,264-140,306-152c128-34,264,8,364.1,114c70,74,590,974.1,606,1050.1c22,96-8,226-68,310c-40,56-126,118-300,218l-242,138l14,120c18,136,20,538,6,726.1l-10,128l214,124c250,144,308,192,358,302c44,92,48,176,14,272c-34,96-532,958.1-592,1022.1c-72,78-202.1,124-320,112c-72-8-154-44-338-150l-242-142l-68,56c-124,102-360,244-568,342l-206,98l-6,256l-6,254L7407.2,1540.8z"
	/>
</g>

</svg>