<?xml version="1.0" encoding="utf-8"?>
<svg
	version="1.1"
	color="darkcyan"
	height="100px" width="100px"
	xml:space="preserve"
	xmlns="http://www.w3.org/2000/svg"
	viewBox="0 0 1000 1000"
>
	<g
		fill="currentColor"
		transform="translate(0.000000,511.000000) scale(0.100000,-0.100000)"><path d="M442.5,4967.7c-46.1-23.1-99.9-71.1-124.9-109.5l-44.2-71.1V2990.8V1194.5l46.1-73c23.1-40.3,78.8-90.3,119.1-111.4c73-36.5,107.6-38.4,660.9-32.7c555.2,5.8,586,7.7,635.9,46.1c28.8,21.1,71.1,63.4,92.2,92.2c40.4,51.9,40.4,65.3,40.4,1875.1s0,1823.2-40.4,1875.1c-21.1,28.8-63.4,71.1-92.2,92.2c-49.9,38.4-80.7,40.3-632.1,46.1C546.2,5008.1,519.3,5008.1,442.5,4967.7z M724.9,3067.7V1626.8h-96.1h-96.1v1440.9v1440.9h96.1h96.1V3067.7z M1166.8,3067.7V1626.8h-96.1h-96.1v1440.9v1440.9h96.1h96.1V3067.7z M1627.9,3067.7V1626.8h-96.1h-96.1v1440.9v1440.9h96.1h96.1V3067.7z"/>
		<path
			d="M3762.3,4228.1l-309.3-780v-657c0-685.9,9.6-805,78.8-956.8l42.3-90.3l-92.2-153.7l-92.2-151.8l-101.8-7.7c-115.3-9.6-211.3-71.1-286.2-184.4c-67.2-101.8-113.4-297.8-99.9-428.4c9.6-88.4,1.9-138.3-53.8-303.5c-230.5-683.9-330.4-1439-311.2-2351.5c17.3-818.4,121-1446.7,347.7-2101.8c40.4-115.3,69.2-244,76.9-332.4c42.3-543.7,551.4-703.1,764.6-240.1c36.5,80.7,44.2,126.8,44.2,288.2c-1.9,226.7-36.5,324.7-163.3,451.5c-69.2,69.2-86.5,105.7-142.2,303.5c-82.6,288.2-159.5,707-194,1072c-32.7,334.3-36.5,1031.7-7.7,1362.1c53.8,639.7,213.3,1331.4,351.6,1535C3672,585.5,3722,739.2,3722,831.4c0,40.3,49.9,153.7,144.1,330.4l144.1,267.1l111.4-25c146-34.6,449.6-34.6,586,1.9c61.5,15.4,115.3,28.8,119.1,28.8c3.8,0,63.4-107.6,132.5-238.2C5055.3,1015.8,5086,939,5086,881.4c0-134.5,38.4-270.9,107.6-370.8C5307,341.5,5435.7-135,5508.7-655.6c130.6-920.3,71.1-1984.6-153.7-2797.2c-61.5-217.1-65.3-226.7-146-280.5c-59.6-42.3-99.9-92.2-146-186.4c-57.6-119.1-63.4-144.1-63.4-313.1c0-161.4,5.8-196,53.8-292c197.9-403.5,632.1-324.7,735.8,132.6c40.4,178.7,50,213.2,142.2,466.8c234.4,649.4,351.6,1404.4,351.6,2267c0,822.2-94.1,1481.2-307.4,2142.1c-55.7,172.9-69.2,242.1-71.1,393.8c-3.8,142.2-13.4,203.6-46.1,278.6c-76.9,169.1-213.3,278.6-345.8,278.6c-50,0-67.2,19.2-155.6,165.2l-101.8,165.2l46.1,98c44.2,98,44.2,111.4,49.9,851.1l5.8,751.2l-305.5,766.6L4746,4998.5l-138.3,5.8l-136.4,5.8v-186.4c0-163.3,5.8-199.8,51.9-293.9c74.9-153.7,74.9-349.7,0-503.4c-32.7-69.2-51.9-138.3-51.9-194c0-80.7,3.8-86.5,76.9-119.1c267-117.2,274.7-497.6,9.6-626.3l-86.5-42.3v-151.8v-151.8h-57.6H4356v153.7v153.7l-71.1,28.8c-147.9,61.5-217.1,165.2-217.1,320.8c0,146,59.6,240.1,186.4,303.5c99.9,48,99.9,48,99.9,142.2c1.9,67.2-9.6,107.6-34.6,134.5c-53.8,59.6-78.8,157.5-78.8,299.7c0,140.2,25,232.5,80.7,305.5c28.8,36.5,34.6,80.7,34.6,234.4v190.2h-142.2h-142.2L3762.3,4228.1z"/>
		<path
			d="M7160.9,4908.2c-286.3-286.3-441.9-660.9-441.9-1066.3c0-251.7,38.4-428.4,142.2-649.4c149.8-315.1,401.5-572.5,705.1-716.6l149.9-71.1V109v-2295.8l-151.8-71.1c-305.5-146-559.1-405.4-708.9-726.2c-98-213.2-136.4-391.9-136.4-639.8c0-378.5,136.4-733.9,386.2-1000.9c74.9-80.7,144.1-146,153.7-146c9.6,0,19.2,234.4,21.2,522.6l5.8,522.6l461.1,274.7c253.6,149.9,468.8,274.7,478.4,274.7c11.5,0,232.5-126.8,495.7-282.4l476.5-282.4l3.8-520.6l5.8-518.7l103.8,105.7c111.4,111.4,244,305.5,299.7,432.3c86.5,199.8,109.5,309.3,119.1,566.7c9.6,224.8,3.8,284.3-30.8,422.7c-109.5,434.2-432.3,828-822.3,1002.8l-140.2,63.4V111v2295.8l101.8,42.3c418.8,174.8,774.2,605.2,870.3,1058.6c34.6,163.3,34.6,493.8,0,657.1c-55.7,257.4-205.6,534.1-397.7,728.1L9207,4998.5l-5.8-530.3c-3.8-393.8-11.5-536-28.8-551.4c-11.5-9.6-230.5-142.2-484.1-292c-343.9-203.6-466.8-269-489.9-255.5c-15.4,11.5-230.5,138.3-474.5,284.3l-447.6,263.2v536c0,297.8-7.7,536-17.3,536C7249.3,4988.9,7205.1,4952.4,7160.9,4908.2z"/>
		<path
			d="M271.5,812.2c-5.8-13.5-7.7-80.7-3.8-147.9l5.8-123l313.2-5.8l311.2-3.8v-2180.5v-2180.6h-67.2h-67.2v-480.3V-4790h317h317v480.3v480.3h-76.8h-76.8v2180.6V531.7h317h317v153.7v153.7h-797.3C425.2,839.1,279.2,835.2,271.5,812.2z"
		/>
	</g>
</svg>