<?xml version="1.0" encoding="utf-8" ?>
<svg
	version="1.1"
	color="darkcyan"
	xml:space="preserve"
	xmlns="http://www.w3.org/2000/svg"
	height="100px" width="100px"
	viewBox="0 0 1000 1000"
>
	<path
		fill="currentColor"
		d="M125.3,10h57.6v57.6h-57.6V10z M298.2,10h-57.6v57.6h57.6V10z M413.5,10h-57.6v57.6h57.6V10z M528.8,10h-57.6v57.6h57.6V10z M644.1,10h-57.6v57.6h57.6V10z M759.4,10h-57.6v57.6h57.6V10z M817.1,67.6h57.6V10h-57.6V67.6z M125.3,990h57.6v-57.6h-57.6V990z M240.6,990h57.6v-57.6h-57.6V990L240.6,990z M355.9,990h57.6v-57.6h-57.6V990z M471.2,990h57.6v-57.6h-57.6V990L471.2,990z M586.5,990h57.6v-57.6h-57.6V990z M701.8,990h57.6v-57.6h-57.6V990z M817.1,990h57.6v-57.6h-57.6V990z M932.4,10v57.6H990V10H932.4z M932.4,182.9H990v-57.6h-57.6V182.9z M932.4,298.2H990v-57.6h-57.6V298.2z M932.4,413.5H990v-57.6h-57.6V413.5z M932.4,528.8H990v-57.6h-57.6V528.8z M932.4,644.1H990v-57.6h-57.6V644.1z M932.4,759.4H990v-57.6h-57.6V759.4z M932.4,874.7H990v-57.6h-57.6V874.7z M932.4,990H990v-57.6h-57.6V990z M10,67.6h57.6V10H10V67.6z M10,182.9h57.6v-57.6H10V182.9z M10,298.2h57.6v-57.6H10V298.2z M10,413.5h57.6v-57.6H10V413.5z M10,528.8h57.6v-57.6H10V528.8z M10,644.1h57.6v-57.6H10V644.1z M10,759.4h57.6v-57.6H10V759.4z M10,874.7h57.6v-57.6H10V874.7z M10,990h57.6v-57.6H10V990z M786.2,467.1c1.2,10.8,2,21.7,2,32.9s-0.8,22.1-2,32.9l-2.1,18.9l-83,24.9c-1.4,3.7-2.9,7.4-4.6,11.1l41,76.2l-11.8,14.9c-13.7,17.2-29.5,33-46.8,46.8l-14.9,11.9l-76.2-41c-3.6,1.6-7.4,3.2-11.1,4.6L551.9,784l-18.9,2.2c-10.8,1.3-21.8,2-33,2s-22.2-0.7-33-2l-18.9-2.2l-24.9-82.9c-3.7-1.4-7.4-2.9-11.1-4.6l-76.3,41l-14.9-11.8c-17.2-13.7-33-29.5-46.7-46.8l-11.8-14.8l41-76.2c-1.7-3.7-3.2-7.4-4.6-11.2l-83-24.9l-2.1-18.9c-1.2-10.8-2-21.7-2-32.9s0.8-22.1,2-32.9l2.1-18.9l83-24.9c1.4-3.7,2.9-7.4,4.6-11.1l-41-76.2l11.8-14.9c13.7-17.2,29.4-32.9,46.8-46.8l14.9-11.9l76.2,41c3.6-1.7,7.4-3.2,11.1-4.6l24.9-82.9l18.9-2.2c21.7-2.5,44.4-2.5,66.1,0l18.9,2.2l24.9,82.9c3.7,1.4,7.4,2.9,11.1,4.6l76.2-41l14.9,11.9c17.2,13.7,33,29.5,46.7,46.7l11.8,14.9l-41,76.3c1.6,3.6,3.2,7.4,4.6,11.1l83,25L786.2,467.1L786.2,467.1z M730.6,500c0-2.6-0.1-5.2-0.2-7.8l-75.1-22.5l-4.4-15c-3-10.1-7.1-20.1-12.2-29.5l-7.3-13.7l37-68.8c-3.6-3.8-7.3-7.6-11.1-11.1l-68.7,37l-13.8-7.4c-9.5-5.1-19.4-9.2-29.6-12.2l-15-4.4l-22.5-75c-5.1-0.2-10.4-0.2-15.6,0l-22.5,75.1l-15,4.4c-10.3,3.1-20.2,7.1-29.5,12.2l-13.7,7.4l-68.8-37.1c-3.9,3.6-7.6,7.3-11.1,11.1l37,68.8l-7.4,13.7c-5.1,9.5-9.2,19.4-12.2,29.6l-4.4,14.9l-75,22.5c-0.1,2.6-0.2,5.2-0.2,7.8s0.1,5.2,0.2,7.7l75.1,22.5l4.4,15c3,10.2,7.1,20.2,12.2,29.6l7.3,13.7l-37,68.8c3.6,3.8,7.3,7.6,11.1,11.1l68.8-37l13.7,7.3c9.5,5.1,19.4,9.2,29.6,12.2l15,4.4l22.5,75.1c5.1,0.2,10.4,0.2,15.6,0l22.5-75l14.9-4.4c10.2-3,20.2-7.1,29.6-12.2l13.7-7.3l68.7,37c3.9-3.6,7.6-7.3,11.1-11.1l-37-68.8l7.3-13.7c5.1-9.5,9.2-19.4,12.2-29.6l4.4-14.9l75-22.5C730.5,505.2,730.6,502.6,730.6,500L730.6,500z"
	/>
</svg>