<?xml version="1.0" encoding="utf-8"?>
<svg
	version="1.1"
	color="darkcyan"
	height="100px" width="100px"
	xmlns="http://www.w3.org/2000/svg"
	viewBox="0 0 1000 1000"
>
	<g
		fill="currentColor"
		transform="scale(15.625,15.625)"
	>
		<path d="M40,31c0-4.411-3.589-8-8-8s-8,3.589-8,8s3.589,8,8,8S40,35.411,40,31z M32,37c-3.309,0-6-2.691-6-6s2.691-6,6-6 s6,2.691,6,6S35.309,37,32,37z"/>
		<path d="M32,27c-2.206,0-4,1.794-4,4s1.794,4,4,4s4-1.794,4-4S34.206,27,32,27z M32,33c-1.103,0-2-0.897-2-2s0.897-2,2-2 s2,0.897,2,2S33.103,33,32,33z"/>
		<path d="M45,51H35v-2h-2v-4h2.777l0.738-2.892c0.049-0.02,0.098-0.041,0.146-0.061l2.567,1.523l5.341-5.341l-1.523-2.567 c0.021-0.049,0.041-0.098,0.061-0.146L46,
		34.777V33h9c4.411,0,8-3.589,8-8s-3.589-8-8-8c-0.017,0-0.033,0.002-0.05,0.003   C54.447,11.955,50.177,8,45,8c-0.86,0-1.718,0.114-2.56,0.34C39.503,3.793,
		34.426,1,29,1c-6.923,0-13.053,4.492-15.192,11.01   C9.486,12.113,6,15.654,6,20c0,0.362,0.03,0.722,0.078,1.078C3.207,21.524,1,24.006,1,27c0,3.309,2.691,6,6,
		6h11v1.777l2.893,0.738   c0.02,0.049,0.04,0.098,0.061,0.146l-1.523,2.567l5.341,5.341l2.567-1.523c0.049,0.021,0.098,0.041,0.146,0.061L28.223,45H31v4h-2
		v2H19V41H1v22h18V53h10v2h6v-2h10v10h18V41H45V51z M7,31c-2.206,0-4-1.794-4-4s1.794-4,4-4c0.849,0,1.659,0.262,2.342,0.757
		l1.174-1.619c-0.721-0.522-1.538-0.861-2.399-1.023C8.047,20.748,8,20.377,8,20c0-3.309,2.691-6,6-6 c1.603,0,3.109,0.624,
		4.243,1.757l1.414-1.414c-1.067-1.067-2.385-1.787-3.818-2.123C17.828,6.739,23.088,3,29,3 c4.981,0,9.627,2.692,12.126,
		7.025l0.416,0.722l0.785-0.279C43.202,10.158,44.101,10,45,10c4.166,0,7.594,3.202,7.963,7.273 C49.537,18.177,47,21.294,
		47,25h2c0-3.309,2.691-6,6-6s6,2.691,6,6s-2.691,6-6,6h-9v-3.777l-2.892-0.738
		c-0.02-0.049-0.041-0.098-0.061-0.146l1.523-2.567l-5.341-5.341l-2.567,1.523c-0.049-0.021-0.098-0.041-0.146-0.061L35.777,17
		h-7.554l-0.738,2.892c-0.049,0.02-0.098,0.041-0.146,0.061l-2.567-1.523l-5.341,5.341l1.523,2.567
		c-0.021,0.049-0.041,0.098-0.061,0.146L18,27.223V31H7z M29.163,40.593l-0.503-0.178c-0.327-0.115-0.644-0.248-0.954-0.396
		l-0.482-0.23l-2.138,1.268l-3.144-3.144l1.268-2.138l-0.23-0.482c-0.148-0.31-0.28-0.627-0.396-0.955l-0.179-0.502L20,33.223
		v-4.446l2.407-0.614l0.178-0.503c0.115-0.327,0.248-0.644,0.396-0.954l0.23-0.482l-1.268-2.138l3.144-3.144l2.138,1.268l0.482-0.23
		c0.31-0.148,0.627-0.28,0.954-0.396l0.503-0.178L29.777,19h4.446l0.614,2.407l0.503,0.178c0.327,0.115,0.644,0.248,0.954,0.396
		l0.482,0.23l2.138-1.268l3.144,3.144l-1.268,2.138l0.23,0.482c0.148,0.31,0.28,0.627,0.396,0.954l0.178,0.503L44,28.777v4.446
		l-2.406,0.614l-0.179,0.502c-0.116,0.327-0.248,0.645-0.396,0.955l-0.23,0.482l1.268,2.138l-3.144,3.144l-2.138-1.268l-0.482,0.23
		c-0.31,0.148-0.627,0.28-0.954,0.396l-0.503,0.178L34.223,43h-4.446L29.163,40.593z M17,61H3V43h14V61z M33,53h-2v-2h2V53z M47,43
		h14v18H47V43z"/>
		<rect x="49" y="45" width="10" height="2"/>
		<rect x="49" y="49" width="10" height="2"/>
		<rect x="49" y="53" width="10" height="2"/>
		<rect x="49" y="57" width="10" height="2"/>
		<rect x="5" y="45" width="10" height="2"/>
		<rect x="5" y="49" width="10" height="2"/>
		<rect x="5" y="53" width="10" height="2"/>
		<rect x="5" y="57" width="10" height="2"/>
	</g>
</svg>
