<?xml version="1.0" encoding="utf-8"?>
<svg
	version="1.1"
	color="darkcyan"
	height="100px" width="100px"
	xmlns="http://www.w3.org/2000/svg"
	viewBox="0 0 1000 1000"
>
	<g
		fill="currentColor"
		transform="translate(0.000000,511.000000) scale(0.100000,-0.100000)"
	>
		<path
			d="M4545,4213.3C3418.4,4102.2,2447,3376.1,2035.1,2337.6c-159-400.4-222.3-783.6-205-1235.8c26.8-707,274-1327.7,739.6-1860.4l134.1-153.3l-122.6-124.5l-124.5-124.5l488.6-488.6l488.6-488.6L5809.5,237.8l2375.8,2375.8l-488.6,488.6l-488.6,488.6L7087.4,3470c-65.1-65.1-126.5-118.8-136-118.8c-7.6,0-74.7,55.6-147.5,122.6C6232.9,4002.6,5347.8,4291.9,4545,4213.3z M4941.6,3673c-7.7-126.4-13.4-264.4-13.4-306.6c0-72.8,0-72.8-76.6-72.8h-76.6v235.7c0,128.4,5.7,266.3,11.5,306.6c11.5,69,15.3,70.9,90,70.9h76.6L4941.6,3673z M4416.6,3826.3c44.1-197.3,93.9-536.5,78.6-549.9c-9.6-9.6-44.1-21.1-76.6-26.8l-59.4-11.5l-49.8,281.6c-61.3,335.3-61.3,323.8-17.3,335.3C4372.5,3876.1,4407,3868.5,4416.6,3826.3z M5432,3830.1c44.1,0,42.2-24.9-28.7-341l-63.2-272.1l-57.5,11.5c-105.4,21.1-103.5,17.2-32.6,329.5c63.2,274,70.9,293.1,107.3,283.6C5380.3,3835.9,5412.9,3830.1,5432,3830.1z M4000.8,3460.4c57.5-147.5,103.5-274,103.5-281.6c0-17.2-132.2-67.1-141.8-53.6c-11.5,11.5-222.3,557.5-218.4,561.4c44.1,24.9,107.3,44.1,128.4,42.1C3885.9,3726.7,3943.4,3606,4000.8,3460.4z M5935.9,3535.1c-24.9-53.7-82.4-180.1-128.3-281.7l-82.4-183.9l-67.1,26.8c-38.3,15.3-70.9,30.6-74.7,34.5c-1.9,1.9,51.7,130.3,120.7,283.6l128.4,277.8l72.8-28.7l74.7-30.6L5935.9,3535.1z M3567.8,3261.1c90-132.2,162.9-249.1,162.9-258.7s-26.8-34.5-61.3-55.6l-59.4-38.3l-170.5,252.9l-168.6,251l57.5,46c32.6,24.9,61.3,46,67.1,46C3401.1,3502.5,3477.8,3395.2,3567.8,3261.1z M6372.8,3387.6c28.7-23,47.9-51.7,42.1-67.1c-15.3-38.3-339.1-467.5-354.4-467.5c-5.7,1.9-36.4,21.1-67.1,46l-53.6,44.1l178.2,241.4c99.6,134.1,185.8,241.4,191.6,243.3C6317.2,3427.8,6344,3408.6,6372.8,3387.6z M3200,2962.2l214.6-216.5l-57.5-55.6l-57.5-55.6L3079.3,2853l-220.3,218.4l51.7,53.7c28.7,28.7,55.6,53.6,63.2,53.6C2979.6,3178.7,3081.2,3081,3200,2962.2z M5238.5,2931.6c285.5-72.8,546-210.8,758.7-398.5l82.4-72.8L4832.4,1214.9L3585.1-30.5L3491.2,73c-182,205-333.4,509.6-390.8,793.2c-40.2,187.8-40.2,528.8,0,718.5c105.4,509.6,463.7,977.1,936.9,1216.6c120.7,59.4,387,143.7,536.5,166.7C4740.4,2992.9,5068,2975.6,5238.5,2931.6z M2862.8,2619.3c128.4-88.1,241.4-164.8,251-170.5c11.5-7.7,1.9-42.1-23-82.4l-42.2-69l-256.7,176.3L2537.1,2648l40.2,63.2c23,36.4,44.1,65.1,47.9,65.1C2629,2776.4,2736.3,2705.5,2862.8,2619.3z M2680.8,2178.6l252.9-97.7l-28.7-67.1c-15.3-38.3-30.7-70.9-32.6-74.7c-5.8-3.8-549.9,203.1-565.2,214.6c-3.8,3.8,7.7,38.3,23,76.6c23,53.6,38.3,69,63.2,59.4C2412.5,2282.1,2540.9,2234.2,2680.8,2178.6z M2678.8,1709.2c44.1-5.7,90-17.2,103.5-24.9c28.7-17.2,5.7-153.3-26.8-153.3c-11.5,1.9-145.6,24.9-298.9,53.6l-277.8,53.7l5.7,57.5c9.6,101.5,5.8,101.5,218.4,63.2C2512.2,1737.9,2636.7,1716.9,2678.8,1709.2z M2763.1,1205.3c0-46-9.6-80.5-23-86.2c-13.4-3.8-151.4-9.6-306.5-13.4l-283.6-5.7v80.5v80.5l206.9,7.7c113,1.9,251,7.7,306.5,9.6l99.6,3.8V1205.3z M2811,791.5c5.7-38.3,7.7-72.8,1.9-78.6c-15.3-15.3-571-141.8-580.5-132.2c-5.7,3.8-15.3,38.3-24.9,76.6l-15.3,67.1l272.1,65.1c147.5,36.4,283.6,67.1,300.8,69C2788.1,860.4,2801.5,839.4,2811,791.5z M2945.2,396.8c13.4-34.5,21.1-69,13.4-76.6c-26.8-26.8-525-245.2-538.4-235.7c-28.7,15.3-67.1,132.2-47.9,138c9.6,3.8,124.5,57.5,256.7,118.8c132.2,63.2,251,115,264.4,115C2906.8,458.1,2929.8,429.4,2945.2,396.8z M3152.1,44.2c19.2-24.9,32.6-55.5,28.7-63.2c-5.7-19.2-433-346.8-465.6-358.3c-9.6-3.8-38.3,19.2-61.3,53.7l-42.1,59.4L2845.5-86c128.4,99.6,243.3,180.1,252.9,180.1C3109.9,92.2,3132.9,71.1,3152.1,44.2z"/>
		<path
			d="M100-3306.7V-4006h4536.9c4933.5,0,4644.2-5.8,4878,105.4c151.3,70.9,251,168.6,321.9,312.3c55.5,111.1,63.2,145.6,63.2,281.6c0,126.4-9.6,172.4-51.7,262.5c-107.3,229.9-314.2,377.4-582.4,417.7c-84.3,11.5-1753.1,19.2-4648.1,19.2H100V-3306.7z M1268.7-3182.2v-268.2h-67.1h-67.1v268.2v268.2h67.1h67.1V-3182.2z M1879.9-3182.2v-268.2h-76.6h-74.7v268.2v268.2h74.7h76.6V-3182.2z M2475.8-3182.2v-268.2h-76.6h-76.6v268.2v268.2h76.6h76.6V-3182.2z M3069.7-3182.2v-268.2h-76.6h-76.6v268.2v268.2h76.6h76.6V-3182.2z M3663.6-3182.2v-268.2H3587h-76.6v268.2v268.2h76.6h76.6V-3182.2z M4257.6-3182.2v-268.2h-74.7h-74.7l-1.9,268.2v268.2h74.7h76.6V-3182.2z M4851.5-3182.2v-268.2h-67.1h-67.1v268.2v268.2h67.1h67.1V-3182.2z M5445.4-3182.2v-268.2h-67.1h-67.1v268.2v268.2h67.1h67.1V-3182.2z M6039.4-3182.2v-268.2h-67.1h-67.1v268.2v268.2h67.1h67.1V-3182.2z M6633.3-3182.2v-268.2h-67.1h-67.1v268.2v268.2h67.1h67.1V-3182.2z M7227.3-3182.2v-268.2h-67.1h-67.1v268.2v268.2h67.1h67.1V-3182.2z M7821.2-3182.2v-268.2h-67.1h-67.1v268.2v268.2h67.1h67.1V-3182.2z M8740.9-3134.3c128.4-65.2,155.2-212.7,59.4-320c-120.7-136-346.8-51.7-346.8,130.3C8453.5-3161.1,8601-3061.5,8740.9-3134.3z M1594.4-3431.2v-268.2h-76.6h-76.6v268.2v268.2h76.6h76.6V-3431.2z M2188.4-3431.2v-268.2h-76.6h-76.6v268.2v268.2h76.6h76.6V-3431.2z M2782.3-3431.2v-268.2h-76.6H2629v268.2v268.2h76.6h76.6V-3431.2z M3376.2-3431.2v-268.2h-67.1h-67.1v268.2v268.2h67.1h67.1V-3431.2z M3970.2-3431.2v-268.2h-67.1h-67.1v268.2v268.2h67.1h67.1V-3431.2z M4564.1-3431.2v-268.2h-67.1H4430v268.2v268.2h67.1h67.1V-3431.2z M5158.1-3431.2v-268.2H5091h-67.1v268.2v268.2h67.1h67.1V-3431.2z M5752-3431.2v-268.2h-67.1h-67.1v268.2v268.2h67.1h67.1V-3431.2z M6345.9-3431.2v-268.2h-67.1h-67.1v268.2v268.2h67.1h67.1V-3431.2z M6939.9-3431.2v-268.2h-67.1h-67.1v268.2v268.2h67.1h67.1V-3431.2z M7545.3-3435.1l3.8-264.4h-74.7h-74.7v270.1v268.2l72.8-5.7l70.9-5.7L7545.3-3435.1z M8146.9-3431.2v-268.2h-76.6h-76.6v268.2v268.2h76.6h76.6V-3431.2z"
		/>
	</g>

</svg>
