<?xml version="1.0" encoding="utf-8" ?>
<svg
	version="1.1"
	color="darkcyan"
	xml:space="preserve"
	xmlns="http://www.w3.org/2000/svg"
	height="100px" width="100px"
	viewBox="0 0 32 32"
>
	<path
		fill="currentColor" d="M16,0C7.164,0,0,7.164,0,16s7.164,16,16,16s16-7.164,16-16S24.836,0,16,0z M16,4
c2.59,0,4.973,0.844,6.934,2.242L6.238,22.93C4.84,20.969,4,18.586,4,16C4,9.383,9.383,4,16,4z M16,28
c-2.59,0-4.973-0.844-6.934-2.242L25.762,9.07C27.16,11.031,28,13.414,28,16C28,22.617,22.617,28,16,28z"/>
</svg>