<?xml version="1.0" encoding="utf-8" ?>
<svg
	version="1.1"
	color="darkcyan"
	xml:space="preserve"
	xmlns="http://www.w3.org/2000/svg"
	height="100px" width="100px"
	viewBox="0 0 1000 1000"
>
	<path
		fill="currentColor"
		d="M80,80h840v840H80V80z M10,10v980h980V10H10z M255,150v35h70v-35H255z M395,150v35h70v-35H395z M535,150v35h70v-35H535z M675,150v35h70v-35H675z M815,150v35h35v-35H815z M815,255v70h35v-70H815z M815,395v70h35v-70H815z M815,535v70h35v-70H815z M815,675v70h35v-70H815z M815,815v35h35v-35H815z M675,815v35h70v-35H675z M535,815v35h70v-35H535z M395,815v35h70v-35H395z M255,815v35h70v-35H255z M150,815v35h35v-35H150z M150,675v70h35v-70H150z M150,535v70h35v-70H150z M150,395v70h35v-70H150z M150,255v70h35v-70H150z M150,150v35h35v-35H150z"
	/>
</svg>