<?xml version="1.0" encoding="utf-8" ?>
<svg
	version="1.1"
	color="darkcyan"
	xml:space="preserve"
	xmlns="http://www.w3.org/2000/svg"
	height="100px" width="100px"
	viewBox="-32 -32 472 472"
>
	<path
		fill="currentColor"
		transform="rotate(90 204 204)"
d="M204,102c28.05,0,51-22.95,51-51S232.05,0,204,0s-51,22.95-51,51S175.95,102,204,102z 
M204,153c-28.05,0-51,22.95-51,51 s22.95,51,51,51s51-22.95,51-51S232.05,153,204,153z M204,306c-28.05,
0-51,22.95-51,51s22.95,51,51,51s51-22.95,51-51 S232.05,306,204,306z"/>
</svg>