<?xml version="1.0" encoding="utf-8"?>
<svg
	version="1.1"
	color="darkcyan"
	height="100px" width="100px"
	xmlns="http://www.w3.org/2000/svg"
	viewBox="0 0 1000 1000"
	xml:space="preserve"
>
<g fill="currentColor">
<path
	d="M882.8,867c0,34.1-27.4,61.7-61.3,61.7H55.9l107.2-509.4c0-34.1,27.4-61.7,61.3-61.7h704.4c33.8,0,61.3,27.6,61.3,61.7L882.8,867z M178.4,311.3h689.1v-60.7c0-34.1-27.4-61.7-61.3-61.7H438.8V133c0-34.1-27.4-61.7-61.3-61.7H71.3C37.4,71.3,10,98.9,10,133v734l107.2-493.9C117.2,339,144.6,311.3,178.4,311.3z"/>
</g>
</svg>