<?xml version="1.0" encoding="utf-8" ?>
<svg
	version="1.1"
	color="darkcyan"
	xml:space="preserve"
	xmlns="http://www.w3.org/2000/svg"
	height="100px" width="100px"
	viewBox="0 0 1000 1000"
>
	<g fill="currentColor" transform="translate(0.000000,511.000000) scale(0.100000,-0.100000)">
		<path
			d="M702.8,110v-4900H5000h4297.2V110v4900H5000H702.8V110z M3790.6,2731.1l-5.8-569.7H2656.9H1529.2l-5.8,569.7l-3.9,567.8h1137.5h1137.5L3790.6,2731.1z M8476.7,2731.1l-5.8-569.7l-1987.2-5.8l-1989.2-3.9v573.6v573.6h1993.1h1993.1L8476.7,2731.1z M3794.4,703.1V129.5l-1131.7,3.9l-1133.6,5.8l-5.8,569.7l-3.9,567.8h1137.5h1137.5V703.1z M8476.7,708.9l-5.8-569.7l-1987.2-5.8l-1989.2-3.9v573.6v573.6h1993.1h1993.1L8476.7,708.9z M3794.4-1231.7v-563.9H2656.9H1519.4v563.9v563.9h1137.5h1137.5V-1231.7z M8480.6-1231.7v-563.9H6487.5H4494.4v563.9v563.9h1993.1h1993.1V-1231.7z M8480.6-3535.8v-398.6H7245.8H6011.1v398.6v398.6h1234.7h1234.7V-3535.8z"
		/>
	</g>
</svg>