<?xml version="1.0" encoding="utf-8" ?>
<svg
	version="1.1"
	color="darkcyan"
	height="100px" width="100px"
	xml:space="preserve"
	xmlns="http://www.w3.org/2000/svg"
	viewBox="0 0 1000 1000"
>
	<g
		fill="currentColor"
		transform="translate(0.000000,511.000000) scale(0.100000,-0.100000)">
		<path
			d="M858,4997.1c-274.2-55.3-539.1-274.2-675-552.9L100,4271.4V112.9v-4158.5l82.9-172.8c106-225.8,255.7-375.5,
			481.5-481.5l172.8-82.9l4077.9-6.9c3064.1-4.6,4110.1,0,4204.6,20.7c377.8,80.6,677.4,380.1,758,758c20.7,94.5,25.3,
			1140.4,20.7,4204.6l-6.9,4077.9l-82.9,172.8c-108.3,223.5-258,373.2-481.5,481.5l-172.8,82.9l-4100.9,2.3C2797.8,
			5013.2,908.7,5006.3,858,4997.1z M8935.4,3061.8v-990.7h-96.8c-96.8,0-106-6.9-495.3-396.3l-398.6-398.6L6940.2,
			2278.5L5938,3280.7l-78.3-92.1c-43.8-50.7-481.5-596.7-972.2-1214.1c-490.7-617.4-903.1-1122-916.9-1124.3c-11.5,
			0-341,317.9-730.3,707.3L2530.6,2267l-594.4-594.4l-592.1-592.1H1199h-142.8v1486v1486h3939.6h3939.6V3061.8z
			M8440,412.4l495.3,495.3V-481.5v-1386.9l-626.7,4.6l-628.9,6.9l-559.8,702.7c-308.7,387.1-569.1,705-578.3,
			709.6c-6.9,2.3-357.1-281.1-774.1-631.3c-419.3-350.2-774.1-640.5-790.2-647.4c-16.1-6.9-350.2,202.7-741.9,
			463.1l-716.5,476.9l-811-541.4l-811-543.7h-419.3h-421.6v990.7v990.7h338.7h341L2132,509.2l398.6,
			398.6l760.3-760.3c470-470,767.2-751.1,778.7-737.2C4081.1-576,4523.4-23,5053.3,638.2l963,
			1207.2l963-963l965.3-965.3L8440,412.4z
			M6834.2-2340.7l387-483.8l857-6.9l857.1-4.6v-495.3v-495.3H4995.7H1056.1v495.3v495.3h564.5h562.1l668.1,
			449.3l665.8,449.2l755.7-502.2l755.7-504.6l681.9,569.1c525.3,440,686.6,564.5,707.3,543.7C6433.4-1845.4,
			6620-2075.8,6834.2-2340.7z"
		/>
	</g>
</svg>