<?xml version="1.0" encoding="utf-8" ?>
<svg
	version="1.1"
	color="darkcyan"
	height="100px" width="100px"
	xml:space="preserve"
	xmlns="http://www.w3.org/2000/svg"
	viewBox="0 0 1000 1000"
><g
	fill="currentColor"
	transform="translate(0.000000,512.000000) scale(0.100000,-0.100000)"><path d="M3913.3,4998.1c-130.2-42.1-243.2-118.7-300.7-199.2c-113-162.8-107.2-23-109.2-2931.9V-806.3l-36.4,141.7c-72.8,273.8-260.4,570.7-519,815.8c-327.5,310.2-689.4,465.4-1039.8,446.2c-294.9-17.2-496-195.3-522.8-467.3c-15.3-139.8,46-256.6,245.1-476.8c430.9-473,578.3-771.7,718.1-1442c103.4-505.6,199.2-831.1,528.5-1813.5c317.9-951.8,348.5-1028.4,413.6-1087.7c99.6-90,53.6-88.1,2376.5-90c2171.6,0,2192.7,0,2273.1,38.3c134.1,65.1,160.9,128.3,275.8,622.4C8519-2803.7,8633.9-1783,8614.7-557.4c-5.7,438.6-5.7,440.5-59.4,549.6c-145.6,296.8-536.2,409.8-819.6,239.4C7617,158.8,7572.9,103.3,7527-28.8l-32.6-97.7L7481,132c-17.2,316-44,417.5-147.4,534.3c-310.2,352.4-955.6,252.8-1087.7-168.5c-38.3-116.8-38.3-116.8-40.2-40.2c-3.8,264.3-38.3,534.3-76.6,612.8c-57.5,116.8-201.1,245.1-337.1,296.8c-226,88.1-532.4,53.6-716.2-78.5c-86.2-63.2-191.5-212.6-191.5-273.8c0-19.2-5.7-30.6-13.4-23c-7.7,7.7-53.6,821.5-103.4,1809.7c-84.3,1689-91.9,1800.1-132.1,1892c-82.3,195.3-268.1,314.1-507.5,325.6C4049.3,5023,3961.2,5013.4,3913.3,4998.1z"/>
</g>
</svg>