<?xml version="1.0" encoding="utf-8" ?>
<svg
	version="1.1"
	color="darkcyan"
	height="100px" width="100px"
	xml:space="preserve"
	xmlns="http://www.w3.org/2000/svg"
	viewBox="0 0 1000 1000"
>
	<g fill="currentColor">
		<path
			d="M500,10C229.4,10,10,229.4,10,500c0,270.6,219.4,490,490,490c270.6,0,490-219.4,490-490C990,229.4,770.6,10,500,10z
			M500,913.4C271.7,913.4,86.6,728.3,86.6,500S271.7,86.6,500,86.6S913.4,271.7,913.4,500S728.3,913.4,500,913.4z"
		/>
		<polygon points="439.5,439.6 452.8,386.4 286.3,286.5 386.2,453 "/>
		<polygon points="613.5,452.5 712.7,285.6 546.9,385.9 560.3,439.4 "/>
		<polygon points="560.7,560.2 547.5,613.6 714.4,712.9 613.8,546.7 "/>
		<polygon points="386.2,547.2 286.3,713.7 453.2,613.5 439.7,560.6 "/>
		<path
			d="M500,255l-49,196l-196,49l196.2,49L501,745l48.3-196.3L745,499l-196-48.2L500,255z M500,530.6c-16.9,
			0-30.6-13.7-30.6-30.6s13.7-30.6,30.6-30.6s30.6,13.7,30.6,30.6S516.9,530.6,500,530.6z"
		/>
	</g>
</svg>