<?xml version="1.0" encoding="utf-8" ?>
<svg
	version="1.1"
	color="darkcyan"
	height="100px" width="100px"
	xml:space="preserve"
	xmlns="http://www.w3.org/2000/svg"
	viewBox="0 0 1000 1000"
>
	<path
		fill="currentColor"
		d="M311.1,157.5v151.7H161.7v525.1h527.5V687.4h149.3v137.3c0,22.5-4.2,43.8-12.6,63.8S805.9,926.1,791,941s-32.3,26.5-52.4,34.9c-20.1,8.4-41.3,12.6-63.8,12.6H172.6c-22.5,0-43.6-4.2-63.2-12.6c-19.7-8.4-36.9-20.1-51.8-34.9s-26.5-32.3-34.9-52.4S10,847.2,10,824.7l0-503.4c0-22.5,4.2-43.8,12.6-63.8c8.4-20.1,20.1-37.5,34.9-52.4s32.1-26.5,51.8-34.9s40.7-12.6,63.2-12.6H311.1z"/>
	<path
		fill="currentColor"
		d="M983.7,158.5c-1.6,32.1-3.4,65-5.4,98.8s-4.2,67.2-6.6,100.6s-4.8,63.6-7.2,90.9c-2.4,30.5-10.4,49.6-24.1,57.2s-28.9,2.6-45.8-15.1c-4.8-4.8-11-10.6-18.7-17.5c-7.6-6.8-15.5-14.1-23.5-21.7s-15.9-15.1-23.5-22.3s-14.3-13.2-19.9-18.1c-12-12-23.1-16.1-33.1-12c-10,4-21.5,12.4-34.3,25.3C714.3,452,690,477,668.7,499.9s-46,48.8-74.1,77.7c-6.4,6.4-13.4,12.4-21.1,18.1s-15.9,9.6-24.7,12s-18.5,2-28.9-1.2s-20.9-10-31.3-20.5c-12.8-12.8-24.7-24.9-35.5-36.1s-23.5-24.1-37.9-38.5c-20.9-20.1-30.3-38.1-28.3-54.2c2-16.1,13.4-34.5,34.3-55.4c18.5-19.3,37.7-39.7,57.8-61.4c20.1-21.7,43-45.4,68.6-71.1c18.5-18.5,31.1-34.7,37.9-48.8c6.8-14.1,3.4-27.5-10.2-40.3c-8.8-8.8-20.3-20.7-34.3-35.5s-25.9-27.1-35.5-36.7c-16.9-16.1-23.3-30.9-19.3-44.6s18.9-22.1,44.6-25.3c25.7-3.2,55.2-6.2,88.5-9c33.3-2.8,67.4-5.4,102.4-7.8s69.9-4.4,104.8-6s66.8-2.8,95.7-3.6c25.7-0.8,43.8,3,54.2,11.4s14.9,25.1,13.2,50C987.3,97.9,985.3,126.4,983.7,158.5z"
	/>
</svg>