<?xml version="1.0" encoding="utf-8"?>
<svg
	version="1.1"
	color="darkcyan"
	height="100px" width="100px"
	xml:space="preserve"
	xmlns="http://www.w3.org/2000/svg"
	viewBox="0 0 1000 1000"
>
	<path
		fill="currentColor"
		d="M500,10C229.4,10,10,229.4,10,500c0,270.6,219.4,490,490,490c270.6,0,490-219.4,490-490C990,229.4,770.6,10,500,10z
		M500,952.3C250.2,952.3,47.7,749.8,47.7,500C47.7,250.2,250.2,47.7,500,47.7c249.8,0,452.3,202.5,452.3,452.3C952.3,749.8,749.8,952.3,500,952.3z
		M600,400L600,400L600,400L236.5,236.5L400,600l0,0l0,0l0,0l0,0l363.5,163.5L600,400L600,400L600,400z M700.1,700.1l-276-124.1l151.9-151.9L700.1,700.1z"
	/>
</svg>