<?xml version="1.0" encoding="utf-8" ?>
<svg
	version="1.1"
	color="darkcyan"
	height="100px" width="100px"
	xml:space="preserve"
	xmlns="http://www.w3.org/2000/svg"
	viewBox="0 0 1000 1000"
>
<g fill="currentColor">
<path
	d="M500,990C229.4,990,10,770.6,10,500C10,229.4,229.4,10,500,10s490,219.4,490,490C990,770.6,770.6,990,500,990L500,990z M500,113.4c-213.1,0-385.5,173.4-385.5,385.5c0,213.1,173.4,385.5,385.5,385.5c213.1,0,385.5-173.4,385.5-385.5C885.5,286.9,713.1,113.4,500,113.4L500,113.4z"/>
	<path d="M259.7,447.8h479.6v104.5H259.7V447.8L259.7,447.8z"/>
</g>
</svg>