<?xml version="1.0" encoding="utf-8"?>
<svg
	version="1.1"
	color="darkcyan"
	height="100px" width="100px"
	xmlns="http://www.w3.org/2000/svg"
	viewBox="0 0 1000 1000"
	xml:space="preserve"
>
	<g fill="currentColor">
		<path
			d="M609.5,637.3c-116.8-6.5-228.4,11.9-335.2,57.8C166.8,741.3,79.3,812.6,10,907.4c1.4-8.3,2.7-16.6,4.1-24.9c1.5-8.3,3-16.6,4.8-24.9c22.5-101.8,58.7-198.2,115.2-286.3c57.9-90.3,132.3-162.7,230.2-209c63.3-30,130.1-45.9,199.8-50.3c14.8-0.9,29.6-1.4,44.9-2.1c0-71.9,0-143.6,0-215.2c0.9-0.7,1.8-1.4,2.7-2.1C738,219.8,864.1,346.9,990,473.8c-126.8,126.5-253.4,253-380.5,379.8C609.5,782,609.5,710.2,609.5,637.3z"
		/>
	</g>
</svg>