<?xml version="1.0" encoding="utf-8" ?>
<svg
	version="1.1"
	color="darkcyan"
	height="100px" width="100px"
	xml:space="preserve"
	xmlns="http://www.w3.org/2000/svg"
	viewBox="0 0 1000 1000"
>
<g fill="currentColor">
<path
	d="M317.2,598v392H105.4V10h418.5c222.5,7.1,335.5,91.9,339,254.3c-3.6,127.1-70.7,206.6-201.3,238.4v5.3c95.4,10.6,153.6,83,174.8,217.2c0,10.6,1.7,21.2,5.3,31.7c7,120.1,24.7,197.8,53,233.1H666.8c-21.1-84.8-33.6-173-37.1-264.9c-10.6-84.8-40.6-127.1-90-127.1L317.2,598L317.2,598z M317.2,174.2v259.5H492c95.4,0,144.7-45.9,148.3-137.7c-3.6-81.2-52.9-121.8-148.3-121.8H317.2z"/>
</g>
</svg>