<?xml version="1.0" encoding="utf-8" ?>
<svg
	version="1.1"
	color="darkcyan"
	height="100px" width="100px"
	xml:space="preserve"
	xmlns="http://www.w3.org/2000/svg"
	viewBox="0 0 1000 1000"
>
<g fill="currentColor">
	<path d="M652.9,869.7c-4.1,9.2-10.2,19.2-18.4,29.9c-8.2,10.7-18.6,20.7-31.4,29.9c-12.8,9.2-27.6,17.1-44.4,23.7c-16.9,6.6-36,10-57.5,10c-21.5,0-40.3-3.6-56.7-10.7c-16.3-7.1-30.4-15.8-42.1-26c-11.7-10.2-21.2-20.7-28.3-31.4s-12.3-19.7-15.3-26.8c-1-3.1-4.6-12.8-10.7-29.1c-6.1-16.3-13.8-37.3-23-62.8c-9.2-25.5-19.4-53.6-30.6-84.3c-11.2-30.6-23-62.3-35.2-95c-27.6-75.6-58.7-160.4-93.5-254.3c-11.2-30.6-21.7-54.1-31.4-70.5c-9.7-16.3-20.2-27.6-31.4-33.7c-11.2-6.1-23.7-8.2-37.5-6.1c-13.8,2-30.9,6.1-51.3,12.3c-5.1-24.5-5.4-47.5-0.8-68.9c4.6-21.4,13.5-40.9,26.8-58.2S70.2,85.3,90.6,73c20.4-12.3,43.4-21.4,68.9-27.6c51.1-13.3,93.7-11.2,127.9,6.1c34.2,17.4,59,46,74.3,85.8c4.1,12.3,12.8,35.7,26,70.5c13.3,34.7,28.6,75.8,46,123.3c17.4,47.5,36.3,98.6,56.7,153.2c20.4,54.6,40.3,108,59.8,160.1l216-514.8c11.2-23.5,29.1-39.8,53.6-49c24.5-9.2,49.5-14.8,75.1-16.9c29.6-3.1,61.3-2.6,95,1.5c-61.3,147.1-116.4,278.8-165.5,395.3c-20.4,50.1-40.9,99.1-61.3,147.1s-38.6,91.2-54.4,129.5c-15.8,38.3-28.9,69.5-39.1,93.5C659.6,854.7,654,867.7,652.9,869.7L652.9,869.7z"/>
</g>
</svg>