<?xml version="1.0" encoding="utf-8"?>
<svg
	version="1.1"
	color="darkcyan"
	height="100px" width="100px"
	xmlns="http://www.w3.org/2000/svg"
	viewBox="0 0 1000 1000"
>
	<path
		fill="currentColor"
		d="M143.6,10h712.7c36.9,0,68.4,13.1,94.5,39.2c26.1,26.1,39.2,57.6,39.2,94.5v712.7c0,36.9-13.1,68.4-39.2,94.5c-26.1,26.1-57.6,39.2-94.5,39.2H143.6c-36.9,0-68.4-13.1-94.5-39.2C23.1,924.7,10,893.2,10,856.4V143.6c0-36.9,13.1-68.4,39.2-94.5C75.3,23.1,106.8,10,143.6,10z M321.8,900.9V366.4H99.1v490c0,12.3,4.4,22.8,13.1,31.5c8.7,8.7,19.2,13.1,31.5,13.1L321.8,900.9L321.8,900.9z M900.9,856.4v-490h-490v534.6h445.4c12.3,0,22.8-4.4,31.5-13.1C896.6,879.2,900.9,868.7,900.9,856.4L900.9,856.4z M856.4,99.1H143.7c-12.3,0-22.8,4.4-31.5,13.1c-8.7,8.7-13.1,19.2-13.1,31.5v133.6h801.8V143.7c0-12.3-4.4-22.8-13.1-31.5C879.2,103.5,868.7,99.1,856.4,99.1L856.4,99.1z"
	/>
</svg>
