<?xml version="1.0" encoding="utf-8" ?>
<svg
	version="1.1"
	color="darkcyan"
	height="100px" width="100px"
	xml:space="preserve"
	xmlns="http://www.w3.org/2000/svg"
	viewBox="0 0 1000 1000"
>
<path
	fill="currentColor"
	d="M285.3,789.9c-9,0-17.9-3.4-24.7-10.3L30.4,549.4C17.2,536.2,10,518.7,10,499.9c0-18.7,7.2-36.3,
	20.4-49.5l230.2-230.1c13.7-13.7,35.8-13.7,49.5,0s13.7,35.8,0,49.5L79.9,500v0.1l230.2,230.2c13.7,
	13.7,13.7,35.8,0,49.5C303.3,786.5,294.3,789.9,285.3,789.9z M714.5,789.9c-9,0-17.9-3.4-24.7-10.3c-13.7-13.7-13.7-35.8,
	0-49.5L920.1,500v-0.1L689.8,269.8c-13.7-13.7-13.7-35.8,0-49.5c13.7-13.7,35.8-13.7,49.5,0l230.2,230.2c13.2,13.2,20.4,
	30.7,20.4,49.5c0,18.7-7.2,36.3-20.4,49.5L739.2,779.7C732.5,786.5,723.5,789.9,714.5,789.9z M382.6,989.3c-2.9,
	0-5.8-0.3-8.7-1.1c-18.7-4.8-29.9-23.9-25.1-42.6L583.5,36.9c4.8-18.7,23.9-29.9,42.6-25.1c18.7,4.8,29.9,23.9,25.1,
	42.6L416.4,963.1C412.3,978.8,398.1,989.3,382.6,989.3z"
/>
</svg>